<svg id="visual" viewBox="0 0 900 600" width="900" height="600" xmlns="http://www.w3.org/2000/svg" xmlns:xlink="http://www.w3.org/1999/xlink" version="1.1"><path d="M0 208L21.5 208.3C43 208.7 86 209.3 128.8 202.3C171.7 195.3 214.3 180.7 257.2 185.2C300 189.7 343 213.3 385.8 225.8C428.7 238.3 471.3 239.7 514.2 227.7C557 215.7 600 190.3 642.8 191C685.7 191.7 728.3 218.3 771.2 231.5C814 244.7 857 244.3 878.5 244.2L900 244L900 0L878.5 0C857 0 814 0 771.2 0C728.3 0 685.7 0 642.8 0C600 0 557 0 514.2 0C471.3 0 428.7 0 385.8 0C343 0 300 0 257.2 0C214.3 0 171.7 0 128.8 0C86 0 43 0 21.5 0L0 0Z" fill="#1f232d"></path><path d="M0 128L21.5 127.2C43 126.3 86 124.7 128.8 123.5C171.7 122.3 214.3 121.7 257.2 124.7C300 127.7 343 134.3 385.8 134.3C428.7 134.3 471.3 127.7 514.2 135.8C557 144 600 167 642.8 178.8C685.7 190.7 728.3 191.3 771.2 188.5C814 185.7 857 179.3 878.5 176.2L900 173L900 0L878.5 0C857 0 814 0 771.2 0C728.3 0 685.7 0 642.8 0C600 0 557 0 514.2 0C471.3 0 428.7 0 385.8 0C343 0 300 0 257.2 0C214.3 0 171.7 0 128.8 0C86 0 43 0 21.5 0L0 0Z" fill="#232832"></path><path d="M0 111L21.5 119C43 127 86 143 128.8 147.7C171.7 152.3 214.3 145.7 257.2 137.3C300 129 343 119 385.8 111.2C428.7 103.3 471.3 97.7 514.2 94.2C557 90.7 600 89.3 642.8 98.7C685.7 108 728.3 128 771.2 137.7C814 147.3 857 146.7 878.5 146.3L900 146L900 0L878.5 0C857 0 814 0 771.2 0C728.3 0 685.7 0 642.8 0C600 0 557 0 514.2 0C471.3 0 428.7 0 385.8 0C343 0 300 0 257.2 0C214.3 0 171.7 0 128.8 0C86 0 43 0 21.5 0L0 0Z" fill="#282d38"></path><path d="M0 73L21.5 76.8C43 80.7 86 88.3 128.8 88.8C171.7 89.3 214.3 82.7 257.2 77.5C300 72.3 343 68.7 385.8 69C428.7 69.3 471.3 73.7 514.2 79.2C557 84.7 600 91.3 642.8 91.5C685.7 91.7 728.3 85.3 771.2 86.3C814 87.3 857 95.7 878.5 99.8L900 104L900 0L878.5 0C857 0 814 0 771.2 0C728.3 0 685.7 0 642.8 0C600 0 557 0 514.2 0C471.3 0 428.7 0 385.8 0C343 0 300 0 257.2 0C214.3 0 171.7 0 128.8 0C86 0 43 0 21.5 0L0 0Z" fill="#2c323d"></path><path d="M0 63L21.5 57.5C43 52 86 41 128.8 41C171.7 41 214.3 52 257.2 58C300 64 343 65 385.8 63.3C428.7 61.7 471.3 57.3 514.2 58.2C557 59 600 65 642.8 67.2C685.7 69.3 728.3 67.7 771.2 61.2C814 54.7 857 43.3 878.5 37.7L900 32L900 0L878.5 0C857 0 814 0 771.2 0C728.3 0 685.7 0 642.8 0C600 0 557 0 514.2 0C471.3 0 428.7 0 385.8 0C343 0 300 0 257.2 0C214.3 0 171.7 0 128.8 0C86 0 43 0 21.5 0L0 0Z" fill="#313743"></path></svg>