<svg id="visual" viewBox="0 0 900 600" width="900" height="600" xmlns="http://www.w3.org/2000/svg" xmlns:xlink="http://www.w3.org/1999/xlink" version="1.1"><rect x="0" y="0" width="900" height="600" fill="#1f232d"></rect><g fill="#00edff"><circle r="66" cx="78" cy="559"></circle><circle r="5" cx="731" cy="330"></circle><circle r="46" cx="540" cy="108"></circle><circle r="62" cx="116" cy="138"></circle><circle r="14" cx="362" cy="461"></circle><circle r="4" cx="735" cy="34"></circle><circle r="18" cx="326" cy="52"></circle><circle r="45" cx="521" cy="376"></circle><circle r="14" cx="790" cy="154"></circle><circle r="12" cx="884" cy="539"></circle><circle r="42" cx="314" cy="202"></circle><circle r="55" cx="627" cy="525"></circle><circle r="33" cx="226" cy="449"></circle><circle r="44" cx="10" cy="297"></circle><circle r="58" cx="866" cy="345"></circle><circle r="24" cx="891" cy="39"></circle><circle r="63" cx="370" cy="328"></circle><circle r="11" cx="157" cy="289"></circle><circle r="51" cx="594" cy="231"></circle><circle r="40" cx="171" cy="11"></circle><circle r="39" cx="240" cy="589"></circle><circle r="21" cx="437" cy="594"></circle><circle r="24" cx="766" cy="469"></circle><circle r="40" cx="6" cy="51"></circle><circle r="19" cx="450" cy="212"></circle><circle r="11" cx="58" cy="422"></circle></g></svg>