<svg id="visual" viewBox="0 0 900 600" width="900" height="600" xmlns="http://www.w3.org/2000/svg" xmlns:xlink="http://www.w3.org/1999/xlink" version="1.1"><path d="M731 600L725.5 585.7C720 571.3 709 542.7 694.7 514.2C680.3 485.7 662.7 457.3 641.7 428.8C620.7 400.3 596.3 371.7 601.7 343C607 314.3 642 285.7 651.8 257C661.7 228.3 646.3 199.7 646.2 171.2C646 142.7 661 114.3 655.3 85.8C649.7 57.3 623.3 28.7 610.2 14.3L597 0L900 0L900 14.3C900 28.7 900 57.3 900 85.8C900 114.3 900 142.7 900 171.2C900 199.7 900 228.3 900 257C900 285.7 900 314.3 900 343C900 371.7 900 400.3 900 428.8C900 457.3 900 485.7 900 514.2C900 542.7 900 571.3 900 585.7L900 600Z" fill="#1f232d" stroke-linecap="round" stroke-linejoin="miter"></path></svg>