<svg id="visual" viewBox="0 0 900 600" width="900" height="600" xmlns="http://www.w3.org/2000/svg" xmlns:xlink="http://www.w3.org/1999/xlink" version="1.1"><path d="M0 428L18.8 434.5C37.7 441 75.3 454 112.8 465C150.3 476 187.7 485 225.2 479.5C262.7 474 300.3 454 337.8 457.8C375.3 461.7 412.7 489.3 450.2 495C487.7 500.7 525.3 484.3 562.8 473.7C600.3 463 637.7 458 675.2 462C712.7 466 750.3 479 787.8 489.3C825.3 499.7 862.7 507.3 881.3 511.2L900 515L900 601L881.3 601C862.7 601 825.3 601 787.8 601C750.3 601 712.7 601 675.2 601C637.7 601 600.3 601 562.8 601C525.3 601 487.7 601 450.2 601C412.7 601 375.3 601 337.8 601C300.3 601 262.7 601 225.2 601C187.7 601 150.3 601 112.8 601C75.3 601 37.7 601 18.8 601L0 601Z" fill="#1f232d" stroke-linecap="round" stroke-linejoin="miter"></path></svg>